<svg width="17" height="17" viewBox="0 0 17 17" fill="none" xmlns="http://www.w3.org/2000/svg">
<path fill-rule="evenodd" clip-rule="evenodd" d="M8.50016 14.8403C12.1821 14.8403 15.1668 11.8555 15.1668 8.17362C15.1668 4.49173 12.1821 1.50696 8.50016 1.50696C4.81826 1.50696 1.8335 4.49173 1.8335 8.17362C1.8335 11.8555 4.81826 14.8403 8.50016 14.8403ZM12.5405 5.46659C12.15 5.07607 11.517 5.07607 11.1265 5.46659L7.8335 8.75956L6.54053 7.46659C6.15 7.07607 5.51699 7.07607 5.12646 7.46659C4.73594 7.85712 4.73594 8.49013 5.12646 8.88066L7.12646 10.8807C7.314 11.0682 7.56828 11.1736 7.8335 11.1736C8.09871 11.1736 8.35299 11.0682 8.54053 10.8807L12.5405 6.88066C12.9311 6.49013 12.9311 5.85712 12.5405 5.46659Z" fill="currentColor"/>
</svg>
