<svg width="17" height="18" viewBox="0 0 17 18" fill="none" xmlns="http://www.w3.org/2000/svg">
<path d="M2 9.47873C4.55 3.81206 12.2 3.81206 14.75 9.47873" stroke="currentColor" stroke-width="1.5" stroke-linecap="round" stroke-linejoin="round"/>
<path d="M8.375 12.3121C8.09594 12.3121 7.81961 12.2571 7.5618 12.1503C7.30398 12.0435 7.06972 11.887 6.8724 11.6897C6.67507 11.4923 6.51855 11.2581 6.41176 11.0003C6.30496 10.7425 6.25 10.4661 6.25 10.1871C6.25 9.90801 6.30496 9.63168 6.41176 9.37386C6.51855 9.11605 6.67507 8.88179 6.8724 8.68446C7.06972 8.48714 7.30398 8.33061 7.5618 8.22382C7.81961 8.11703 8.09594 8.06207 8.375 8.06207C8.93858 8.06207 9.47909 8.28595 9.8776 8.68446C10.2761 9.08298 10.5 9.62348 10.5 10.1871C10.5 10.7507 10.2761 11.2912 9.8776 11.6897C9.47909 12.0882 8.93858 12.3121 8.375 12.3121Z" stroke="currentColor" stroke-width="1.5" stroke-linecap="round" stroke-linejoin="round"/>
</svg>
