<svg width="24" height="24" viewBox="0 0 24 24" fill="none" xmlns="http://www.w3.org/2000/svg">
<path stroke="#000000" stroke-width="2" d="M12.6924 6.91706C12.3055 7.28838 11.6945 7.28838 11.3076 6.91706L10.6152 6.2526C9.80477 5.47487 8.70994 5 7.5 5C5.01472 5 3 7.01472 3 9.5C3 11.8826 4.28979 13.8501 6.15176 15.4666C8.01532 17.0844 10.2434 18.1574 11.5746 18.7051C11.853 18.8196 12.147 18.8196 12.4254 18.7051C13.7566 18.1574 15.9847 17.0844 17.8482 15.4666C19.7102 13.85 21 11.8826 21 9.5C21 7.01472 18.9853 5 16.5 5C15.2901 5 14.1952 5.47487 13.3848 6.2526L12.6924 6.91706ZM12" fill="currentColor"/>
</svg>
